<?xml version="1.0" encoding="utf-8"?><!DOCTYPE svg PUBLIC "-//W3C//DTD SVG 1.1//EN" "http://www.w3.org/Graphics/SVG/1.1/DTD/svg11.dtd"><svg version="1.1" xmlns="http://www.w3.org/2000/svg" xmlns:xlink="http://www.w3.org/1999/xlink" x="0px" y="0px" width="47.2px" height="89.855px" viewBox="0 0 47.2 89.855" enable-background="new 0 0 47.2 89.855" xml:space="preserve"><path fill-rule="evenodd" clip-rule="evenodd" d="M1.773,88.198c3.956-1.328,7.689-2.751,11.264-4.919c-2.481-1.453-2.974-4.637-2.625-7.289c0.144-1.096,0.371-2.788,1.134-3.65c0.667-0.754,1.914,0.877,2.214,1.349c1.382,2.17,0.997,5.378,0.136,7.662c-0.221,0.586-0.513,1.139-0.76,1.713c0.303,0.21,1.375-0.8,1.682-1.028c1.316-0.978,2.604-1.994,3.854-3.054c-1.659-1.084-2.574-3.552-2.776-5.419c-0.131-1.21-0.104-2.446,0.11-3.646c0.091-0.513,0.35-2.553,1.019-2.653c0.752-0.112,1.702,0.843,2.089,1.381c0.637,0.887,0.954,2.032,1.109,3.1c0.302,2.072-0.059,4.769-0.917,6.692c1.784-1.552,3.48-3.207,5.043-4.982c-1.818-0.7-3.01-2.785-3.768-4.461c-0.85-1.88-1.528-4.172-1.127-6.249c0.119-0.616,1.86,0.725,2.125,0.978c0.786,0.748,1.407,1.665,1.914,2.62c1.006,1.896,1.762,4.231,1.465,6.402c1.316-1.557,2.528-3.203,3.602-4.937c-4.631-1.099-6.05-5.982-7.312-9.92c4.849,0,6.705,5.354,7.688,9.288c1.109-1.868,2.068-3.824,2.844-5.854c-2.274-0.245-4.512-0.955-6.167-2.603c-1.764-1.756-2.807-4.078-3.636-6.387c2.373,0,4.384,0.544,6.096,2.303c1.805,1.854,2.666,4.31,3.799,6.577c0.787-1.568,1.225-3.555,1.559-5.277c0.09-0.468,0.02-0.72-0.474-0.813c-0.839-0.159-1.671-0.24-2.491-0.502c-3.852-1.233-6.186-4.67-7.607-8.272c3.745-0.355,6.585,1.523,8.577,4.583c0.5,0.768,0.946,1.569,1.381,2.375c0.2,0.372,0.408,0.737,0.624,1.1c0.442,0.743,0.406-0.541,0.445-0.857c0.268-2.169,0.269-4.376,0.15-6.557c-2.556,0.259-5.275-0.264-7.354-1.828c-2.092-1.574-3.382-3.862-4.741-6.043c2.715-0.517,5.183-0.16,7.342,1.657c0.967,0.813,1.772,1.799,2.481,2.841c0.707,1.04,1.532,1.978,2.244,3.008c-0.136-2.142-0.441-4.276-0.986-6.354c-0.103-0.389-0.229-1.767-0.825-1.749c-1.005,0.029-1.971,0.255-2.99,0.207c-1.891-0.091-3.756-0.65-5.342-1.693c-1.714-1.128-2.794-2.695-3.972-4.332c2.905-1.222,5.969-0.607,8.498,1.172c1.232,0.867,2.234,1.96,3.219,3.088c0.95,1.087,0.358-0.414,0.134-0.989c-0.324-0.834-0.651-1.667-0.984-2.498c-0.241-0.603-0.434-1.281-0.768-1.84c-0.272-0.457-0.896-0.141-1.288-0.054c-1.708,0.379-3.465,0.306-5.15-0.148c-2.989-0.807-5.147-2.67-6.849-5.185c4.634-2.153,8.977,0.602,12.316,3.673c0.133-0.62-0.718-1.756-1.006-2.29c-0.454-0.839-0.993-1.635-1.522-2.427c-0.371-0.554-0.873-1.74-1.472-2.054c-0.312-0.164-0.792,0.171-1.078,0.271c-0.443,0.154-0.898,0.275-1.36,0.359c-3.576,0.653-7.038-0.751-9.645-3.124c3.696-2.514,8.647-0.717,11.78,1.87c-0.156-0.59-0.599-1.053-0.954-1.534c-0.528-0.717-1.058-1.434-1.591-2.147c-0.453-0.605-1.215-2.258-2.175-2.014c-1.404,0.356-2.677,0.773-4.154,0.783c-1.523,0.01-3.068-0.221-4.507-0.723c-1.384-0.482-2.577-1.217-3.663-2.193c-0.281-0.252-0.539-0.279-0.357-0.657c0.34-0.169,0.688-0.322,1.044-0.454c0.769-0.287,1.572-0.478,2.388-0.561c3.006-0.306,5.893,0.884,8.505,2.243c-1.064-1.22-2.205-2.379-3.313-3.559c-0.298-0.317-0.625-0.576-0.979-0.829c-0.434-0.312-1.133-0.092-1.624-0.08c-1.033,0.027-2.068-0.089-3.067-0.355c-1.893-0.504-3.559-1.54-4.965-2.889C4.652,6.936,4.079,6.233,3.419,5.61C2.75,4.978,2.033,4.369,1.482,3.625c3.299-1.04,6.912-0.333,9.494,1.975c2.521,2.252,4.018,5.625,6.757,7.622c-2.03-3.616-2.423-7.715-1.161-11.661c2.076,0.914,3.008,3.839,3.4,5.86c0.279,1.434,0.352,2.909,0.16,4.359c-0.097,0.735-0.261,1.461-0.487,2.168c-0.235,0.732-0.425,1.045,0.097,1.674c0.933,1.124,1.876,2.257,2.906,3.293c0.23,0.231,0.463,0.46,0.691,0.694c0.253-0.196-0.067-0.548-0.168-0.802c-0.271-0.683-0.488-1.387-0.644-2.105c-0.62-2.857-0.192-5.795,0.809-8.513c2.329,1.677,3.171,4.222,3.295,7.008c0.061,1.361-0.055,2.734-0.42,4.05c-0.183,0.658-0.427,1.299-0.73,1.912c-0.426,0.86-0.408,0.983,0.139,1.794c0.844,1.251,1.699,2.496,2.554,3.741c0.446,0.65,0.823,1.162,0.545,0.029c-0.205-0.837-0.315-1.702-0.344-2.563c-0.092-2.789,0.728-5.656,2.702-7.675c0.449-0.458,0.882-1.062,1.381-0.352c0.79,1.123,1.343,2.422,1.511,3.787c0.304,2.472-0.406,5.328-1.806,7.389c-0.329,0.484-0.708,0.933-1.132,1.336c-0.29,0.275-1.034,0.624-1.055,1.055c-0.027,0.546,0.624,1.447,0.856,1.941c0.394,0.836,0.791,1.67,1.188,2.504c0.155,0.325,0.588,1.583,0.921,1.474c-0.047-0.665-0.183-1.317-0.215-1.984c-0.07-1.429,0.153-2.878,0.616-4.231c0.463-1.354,1.232-2.595,2.368-3.485c0.425-0.333,1.301-1.057,1.879-0.997c0.556,0.058,0.599,2.263,0.63,2.686c0.27,3.595-0.811,7.542-3.591,9.981c-0.823,0.723-0.975,0.795-0.712,1.917c0.268,1.143,0.548,2.282,0.828,3.421c0.105,0.427,0.214,0.853,0.328,1.278c0.208,0.771,0.32-0.132,0.346-0.395c0.105-1.071,0.186-2.138,0.42-3.191c0.782-3.508,3.021-6.374,6.653-7.15c-0.258,3.402-0.354,6.683-2.449,9.55c-0.958,1.312-2.201,2.388-3.609,3.193c-0.925,0.529-1.007,0.63-0.938,1.695c0.063,0.965,0.037,1.938,0.039,2.904c0.001,0.906,0,1.813,0.002,2.719c0.004,1.333,0.55-0.691,0.646-1.03c0.488-1.704,1.146-3.389,2.145-4.863c0.763-1.126,1.743-2.107,2.939-2.767c1.489-0.821,3.061-0.926,4.715-1.092c-1.015,3.612-2.255,7.13-5.457,9.395c-0.668,0.473-1.391,0.867-2.148,1.179c-0.858,0.353-1.784,0.446-2.641,0.765c-0.744,0.277-0.747,1.854-0.893,2.505c-0.197,0.88-0.696,2.041-0.534,2.931c1.683-1.9,3.226-3.87,5.473-5.153c2.443-1.395,4.771-1.262,7.417-0.694c-1.923,3.071-4.933,5.871-8.6,6.509c-0.813,0.142-1.643,0.184-2.467,0.142c-0.521-0.026-1.903-0.508-2.252,0.012c-0.546,0.813-0.833,1.907-1.264,2.792c-0.465,0.955-0.969,1.89-1.498,2.81c3.199-3.272,10.029-6.438,13.96-2.697c0.57,0.542-0.492,0.985-0.875,1.27c-0.583,0.433-1.164,0.869-1.776,1.258c-1.27,0.809-2.691,1.426-4.163,1.752c-2.24,0.498-5.562,0.44-7.437-1.107c-0.685,1.161-1.413,2.295-2.184,3.4c-0.802,1.15-1.799,2.216-2.491,3.43c2.775-1.69,5.503-3.499,8.913-3.209c1.378,0.117,2.677,0.586,3.627,1.626c0.13,0.142,0.525,0.416,0.265,0.614c-0.354,0.274-0.711,0.544-1.074,0.806c-0.629,0.456-1.276,0.889-1.949,1.278c-2.563,1.484-5.954,2.528-8.729,0.988c-0.552-0.306-1.245-0.792-1.884-0.873c-0.604-0.077-1.306,0.969-1.678,1.338c-1.168,1.162-2.35,2.3-3.62,3.35c2.165-0.787,4.861-1.348,7.163-1.395c2.432-0.05,5.147,0.703,6.018,3.22c-2.605,0.785-5.156,1.543-7.914,1.219c-1.867-0.219-4.636-0.959-5.5-2.86c-0.867,0.709-1.753,1.395-2.644,2.074c-0.93,0.709-2.142,1.382-2.883,2.287c0.891,0.103,1.884-0.323,2.766-0.445c1.102-0.152,2.222-0.19,3.329-0.074c1.652,0.172,3.485,0.625,4.645,1.902c0.373,0.411,0.964,1.159,0.94,1.752c-0.024,0.591-1.788,0.698-2.18,0.764c-2.213,0.372-4.5,0.296-6.646-0.395c-0.736-0.237-1.452-0.552-2.086-0.999c-0.714-0.502-1.095-1.211-1.707-1.795c-0.417-0.396-1.11,0.217-1.474,0.423c-0.957,0.541-1.933,1.047-2.927,1.517c-1.876,0.885-3.816,1.636-5.801,2.24c-0.345,0.105-1.04,0.446-1.3,0.023C1.605,89.3,1.222,88.382,1.773,88.198C2.279,88.028,1.502,88.289,1.773,88.198z"/></svg>